<svg xmlns="http://www.w3.org/2000/svg" width="1729" height="671" fill="none" xmlns:v="https://vecta.io/nano"><path d="M563.301 277.525h32.249c8.373 0 15.164 6.757 15.164 15.113v64.04c0 12.61 16.15 17.92 23.672 7.777l60.075-80.82c2.859-3.846 7.386-6.127 12.185-6.127h38.615c12.321 0 19.503 13.853 12.372 23.86l-83.458 117.035a13.05 13.05 0 0 0-.068 15.045l86.385 123.587c6.961 9.956-.102 23.605-12.287 23.741l-39.346.425c-5.004.051-9.718-2.348-12.594-6.45l-60.943-86.691c-5.139-7.318-15.98-7.455-21.307-.273-1.668 2.247-2.57 4.97-2.57 7.761v70.609c0 8.339-6.79 15.112-15.163 15.112h-32.998c-8.373 0-15.164-6.756-15.164-15.112V292.604c0-8.339 6.791-15.113 15.164-15.113l.017.034zm456.019 0h32.25c8.38 0 15.17 6.671 15.17 14.891v156.841c0 25.664-4.97 48.469-14.91 68.448s-23.91 35.586-41.92 46.784c-18.002 11.215-38.561 16.814-61.655 16.814-35.279 0-63.954-12.287-86.061-36.862-22.107-24.557-33.152-56.297-33.152-95.184V292.416c0-8.22 6.79-14.891 15.163-14.891h32.625c8.373 0 15.163 6.671 15.163 14.891v155.225c0 19.435 4.85 35.228 14.534 47.379s23.213 18.499 40.605 19.043c17.376 0 31.229-5.803 41.542-17.409 10.296-11.607 15.456-27.945 15.456-49.013V292.416c0-8.22 6.79-14.891 15.16-14.891h.03zm90.27 289.177V292.314c0-8.39 6.79-15.197 15.16-15.197h32.32c8.36 0 15.13 6.756 15.16 15.129l.98 212.917c.03 8.373 6.82 15.129 15.16 15.129h78.96c8.38 0 15.17 6.808 15.17 15.198v31.212c0 8.39-6.79 15.197-15.17 15.197h-142.59c-8.38 0-15.17-6.807-15.17-15.197h.02zm272.46 15.214h-33.56c-10.21 0-17.51-9.905-14.5-19.673l82-265.181a29.57 29.57 0 0 1 28.71-20.847l37.61.578c12.97.205 24.3 8.833 27.94 21.29l77.25 264.381c2.84 9.717-4.44 19.435-14.57 19.435h-33.13c-6.78 0-12.73-4.493-14.59-11.028l-9.03-31.739c-1.84-6.484-7.73-10.96-14.47-11.028l-79.95-.647c-6.64-.051-12.53 4.221-14.57 10.534l-10.72 33.356c-2.01 6.28-7.85 10.535-14.45 10.535l.03.034zm57.22-113.581h46.65c8.52 0 14.63-8.22 12.18-16.389l-18.84-72.413c-4.46-14.874-25.34-15.282-30.39-.612l-21.65 72.532c-2.84 8.271 3.3 16.882 12.03 16.882h.02z" fill="#7e3829"/><path d="M578.144 240.087H548.12l43.575-128.928 37.567.522 41.003 128.406h-29.85l-7.036-22.617-47.177-.348-8.066 22.965h.008zm13.037-47.851h37.567l-17.501-53.416-20.074 53.416h.008zm141.189 11.139v37.06h-28.821V111.159h54.902c7.551 0 14.551 1.16 21.015 3.479s11.979 5.478 16.559 9.486c4.573 4 8.146 8.877 10.726 14.617 2.572 5.739 3.862 11.921 3.862 18.53 0 8.935-2.203 16.906-6.602 23.921-4.406 7.022-10.609 12.472-18.609 16.356-8.008 3.884-17.103 5.827-27.277 5.827h-25.734-.021zm-.689-69.251v43.677h20.762c4.116 0 8.001-.551 11.668-1.653 3.659-1.101 6.833-2.608 9.522-4.522s4.804-4.232 6.348-6.956 2.319-5.653 2.319-8.791c0-2.435-.486-4.812-1.457-7.131s-2.377-4.348-4.203-6.087c-1.833-1.739-3.971-3.275-6.435-4.609s-5.203-2.319-8.232-2.957-6.204-.956-9.523-.956h-20.762l-.007-.015zm125.993 89.868c-12.24-12.008-18.356-27.632-18.356-46.894s6.116-34.886 18.356-46.894 28.132-18.008 47.691-18.008 35.48 6 47.778 18.008c12.291 12.008 18.443 27.639 18.443 46.894s-6.116 34.886-18.356 46.894S925.033 242 905.365 242s-35.458-6-47.691-18.008zm38.857-85.78c-2.92.637-5.602 1.565-8.065 2.782a35.63 35.63 0 0 0-6.863 4.435c-2.116 1.739-4.008 3.74-5.66 6.001-1.659 2.261-3.087 4.696-4.29 7.312-1.203 2.609-2.087 5.449-2.66 8.522s-.855 6.239-.855 9.479c0 11.602 3.486 21.052 10.465 28.364s15.957 11.022 26.936 11.138c7.203 0 13.667-1.681 19.385-5.044s10.146-8.029 13.298-14.008c3.145-5.971 4.718-12.79 4.718-20.443s-1.573-14.472-4.718-20.443-7.58-10.639-13.298-14.008c-5.718-3.363-12.182-5.044-19.385-5.044-3.087 0-6.087.319-9.008.957zm138.019-1.305h-38.426V111.5h106.886v25.407h-38.43v103.876h-30.03V136.907zm132.5 78.65l63.81.347.18 24.183h-92.65V110.985h92.13v24.705l-63.47-.174v25.407h63.47v27.139l-63.31.174-.17 27.321h.01zm103.61-103.709h28.82v50.285l40.66-50.285h34.83l-48.72 62.815 49.75 65.424-34.99.348-35-45.764-6.17 7.66v38.104h-29.16v-128.58l-.02-.007zM328.134 386.067c0 28.03-22.725 50.755-50.764 50.755s-50.756-22.716-50.756-50.755 22.725-50.756 50.756-50.756 50.764 22.725 50.764 50.756z" fill="#9c163c"/><path d="M376.599 341.3a111.4 111.4 0 0 1-16.736-1.256c-7.603-1.153-13.532 6.553-10.371 13.567 4.724 10.483 7.236 22.187 6.92 34.489-1.06 42.092-35.497 76.257-77.598 77.017-44.707.803-81.144-35.523-80.503-80.204.615-43.356 35.702-77.914 79.059-77.914h.786c7.091.069 11.268-7.877 7.253-13.72-5.673-8.261-10.261-17.334-13.541-27.005-1.914-5.639-8.449-8.219-13.721-5.442-15.394 8.133-32.951 12.738-51.575 12.738-23.528 0-45.339-7.348-63.263-19.88-6.45-4.511-15.309.111-15.309 7.987v275.349c0 25.057 20.307 45.364 45.365 45.364h236.391c25.057 0 45.364-20.307 45.364-45.364V329.434c0-7.869-8.851-12.499-15.309-7.988a110.06 110.06 0 0 1-63.22 19.846l.008.008z" fill="#7e3829"/><path d="M376.599 309.263c43.366 0 78.521-35.155 78.521-78.521s-35.155-78.52-78.521-78.52-78.521 35.155-78.521 78.52 35.155 78.521 78.521 78.521zm-170.018-67.722c43.365 0 78.52-35.155 78.52-78.521s-35.155-78.52-78.52-78.52-78.521 35.155-78.521 78.521 35.155 78.521 78.521 78.521z" fill="#9c163c"/></svg>